<?xml version="1.0" encoding="utf-8"?>
<!-- Generator: Adobe Illustrator 22.1.0, SVG Export Plug-In . SVG Version: 6.00 Build 0)  -->
<svg version="1.1" id="Layer_1" xmlns="http://www.w3.org/2000/svg" xmlns:xlink="http://www.w3.org/1999/xlink" x="0px" y="0px"
	 viewBox="0 0 512 512" style="enable-background:new 0 0 512 512;" xml:space="preserve">
<g>
	<title>cc-visa</title>
	<g>
		<path d="M398.3,261.7c0,0,5.9,29.1,7.3,35.2h-26.1c2.6-7,12.5-34,12.5-34c-0.2,0.2,2.6-7.1,4.1-11.6L398.3,261.7z M481,143.5v275
			c0,20.7-16.8,37.5-37.5,37.5h-375C47.8,456,31,439.2,31,418.5v-275c0-20.7,16.8-37.5,37.5-37.5h375C464.2,106,481,122.8,481,143.5
			z M150.1,339.8l49.4-121.2h-33.2l-30.7,82.8l-3.4-16.8l-10.9-55.8c-1.8-7.7-7.3-9.9-14.2-10.2H56.6l-0.5,2.4
			c12.3,3.1,23.4,7.6,33,13.4l28,105.5H150.1z M223.9,339.9l19.7-121.4h-31.4l-19.6,121.4H223.9z M333.2,300.2
			c0.2-13.8-8.3-24.4-26.3-33c-11-5.6-17.7-9.3-17.7-15c0.2-5.2,5.7-10.5,18-10.5c10.2-0.2,17.7,2.2,23.4,4.6l2.8,1.3l4.3-26.3
			c-6.2-2.4-16-5.2-28.1-5.2c-31,0-52.8,16.6-53,40.1c-0.2,17.4,15.6,27.1,27.5,33c12.1,5.9,16.3,9.8,16.3,15.1
			c-0.2,8.1-9.8,11.9-18.8,11.9c-12.5,0-19.2-2-29.5-6.5l-4.1-2l-4.4,27.3c7.3,3.4,20.9,6.3,35,6.5
			C311.5,341.6,333,325.3,333.2,300.2L333.2,300.2z M443.5,339.9l-25.3-121.4h-24.3c-7.5,0-13.2,2.2-16.4,10.1l-46.6,111.3h33
			c0,0,5.4-15,6.6-18.2h40.3c0.9,4.3,3.8,18.2,3.8,18.2L443.5,339.9z"/>
	</g>
</g>
</svg>
