<?xml version="1.0" encoding="utf-8"?>
<!-- Generator: Adobe Illustrator 22.1.0, SVG Export Plug-In . SVG Version: 6.00 Build 0)  -->
<svg version="1.1" id="Layer_1" xmlns="http://www.w3.org/2000/svg" xmlns:xlink="http://www.w3.org/1999/xlink" x="0px" y="0px"
	 viewBox="0 0 32 32" style="enable-background:new 0 0 32 32;" xml:space="preserve">
<title>apple-pay</title>
<path d="M5.8,11c-0.4,0.4-1,0.8-1.6,0.8c-0.1-0.6,0.2-1.3,0.6-1.7c0.4-0.5,1-0.8,1.6-0.8C6.5,10,6.2,10.6,5.8,11L5.8,11z M6.4,11.9
	c-0.9-0.1-1.6,0.5-2,0.5c-0.4,0-1.1-0.5-1.7-0.5c-0.9,0-1.7,0.5-2.2,1.3c-0.9,1.6-0.2,4,0.7,5.4c0.4,0.7,1,1.4,1.7,1.4
	c0.7,0,0.9-0.4,1.7-0.4c0.8,0,1,0.4,1.7,0.4c0.7,0,1.2-0.7,1.6-1.3c0.5-0.7,0.7-1.5,0.7-1.5c0,0-1.4-0.6-1.4-2.2c0-1.4,1.1-2,1.1-2
	C7.7,12,6.7,11.9,6.4,11.9L6.4,11.9z M11.4,10.1v9.9h1.5v-3.4H15c1.9,0,3.3-1.3,3.3-3.2c0-1.9-1.3-3.2-3.2-3.2L11.4,10.1z
	 M12.9,11.4h1.7c1.3,0,2.1,0.7,2.1,2s-0.8,2-2.1,2h-1.7L12.9,11.4z M21,20c1,0,1.8-0.5,2.2-1.3h0v1.2h1.4V15c0-1.4-1.1-2.3-2.9-2.3
	c-1.6,0-2.8,0.9-2.8,2.2h1.4c0.1-0.6,0.7-1,1.4-1c0.9,0,1.4,0.4,1.4,1.2v0.5l-1.9,0.1c-1.8,0.1-2.7,0.8-2.7,2.1
	C18.7,19.2,19.6,20,21,20L21,20z M21.4,18.8c-0.8,0-1.3-0.4-1.3-1c0-0.6,0.5-1,1.4-1l1.7-0.1v0.6C23.2,18.2,22.5,18.8,21.4,18.8
	L21.4,18.8z M26.6,22.6c1.5,0,2.2-0.6,2.8-2.3l2.7-7.5h-1.5l-1.8,5.8h0l-1.8-5.8h-1.6l2.6,7.2l-0.1,0.4c-0.2,0.7-0.6,1-1.3,1
	c-0.1,0-0.3,0-0.4,0v1.2C26.1,22.6,26.5,22.6,26.6,22.6L26.6,22.6z"/>
</svg>
